<svg width="44" height="44" viewBox="0 0 44 44" fill="none" xmlns="http://www.w3.org/2000/svg">
<rect width="44" height="44" rx="22" fill="#5751E1"/>
<path d="M10.9859 34C10.7245 33.9997 10.4739 33.8957 10.2891 33.7109C10.1043 33.526 10.0003 33.2755 10 33.0141V27.5183C10.0009 27.257 10.1049 27.0067 10.2892 26.8216L25.0653 12.0481C25.3974 11.7158 25.7916 11.4522 26.2256 11.2724C26.6595 11.0926 27.1247 11 27.5944 11C28.0641 11 28.5293 11.0926 28.9632 11.2724C29.3972 11.4522 29.7914 11.7158 30.1235 12.0481L31.9519 13.8765C32.2842 14.2086 32.5478 14.6028 32.7276 15.0368C32.9074 15.4707 33 15.9359 33 16.4056C33 16.8753 32.9074 17.3405 32.7276 17.7744C32.5478 18.2084 32.2842 18.6026 31.9519 18.9347L17.1797 33.7108C17.0882 33.8027 16.9795 33.8756 16.8597 33.9252C16.7399 33.9749 16.6114 34.0003 16.4817 34H10.9859ZM11.9717 27.9258V32.0283H16.0729L26.4705 21.6307L22.3693 17.5295L11.9717 27.9258ZM27.8652 20.2373L30.5612 17.5413C30.8616 17.24 31.0303 16.8318 31.0303 16.4063C31.0303 15.9807 30.8616 15.5726 30.5612 15.2712L28.7301 13.4388C28.4289 13.138 28.0207 12.9691 27.595 12.9691C27.1694 12.9691 26.7612 13.138 26.46 13.4388L23.7627 16.1361L27.8652 20.2373Z" fill="white"/>
</svg>
