<svg width="19" height="24" viewBox="0 0 19 24" fill="none" xmlns="http://www.w3.org/2000/svg">
<path d="M18.6374 23.9382H16.3407V21.661C16.3407 19.7745 14.7983 18.2452 12.8956 18.2452H6.0055C4.10285 18.2452 2.56044 19.7745 2.56044 21.661V23.9382H0.263741V21.661C0.263741 18.5169 2.83442 15.968 6.0055 15.968H12.8956C16.0667 15.968 18.6374 18.5169 18.6374 21.661V23.9382ZM9.45055 13.6909C5.64525 13.6909 2.56044 10.6323 2.56044 6.8593C2.56044 3.08633 5.64525 0.0277405 9.45055 0.0277405C13.2558 0.0277405 16.3407 3.08633 16.3407 6.8593C16.3407 10.6323 13.2558 13.6909 9.45055 13.6909ZM9.45055 11.4137C11.9874 11.4137 14.044 9.37461 14.044 6.8593C14.044 4.34399 11.9874 2.30493 9.45055 2.30493C6.91368 2.30493 4.85715 4.34399 4.85715 6.8593C4.85715 9.37461 6.91368 11.4137 9.45055 11.4137Z" fill="#1C1C1C"/>
</svg>
