<svg width="29" height="28" viewBox="0 0 29 28" fill="none" xmlns="http://www.w3.org/2000/svg">
<path d="M7.56044 9.69937V8.56077C7.56044 4.78781 10.6452 1.72922 14.4506 1.72922C18.2558 1.72922 21.3407 4.78781 21.3407 8.56077V9.69937H23.6374C24.2716 9.69937 24.7857 10.2091 24.7857 10.838V24.5011C24.7857 25.1299 24.2716 25.6397 23.6374 25.6397H5.26374C4.62953 25.6397 4.11539 25.1299 4.11539 24.5011V10.838C4.11539 10.2091 4.62953 9.69937 5.26374 9.69937H7.56044ZM22.489 11.9766H6.41209V23.3625H22.489V11.9766ZM13.3022 18.5034C12.6157 18.1097 12.1538 17.3738 12.1538 16.5309C12.1538 15.2732 13.1821 14.2537 14.4506 14.2537C15.719 14.2537 16.7473 15.2732 16.7473 16.5309C16.7473 17.3738 16.2854 18.1097 15.5989 18.5034V21.0853H13.3022V18.5034ZM9.85715 9.69937H19.044V8.56077C19.044 6.04546 16.9874 4.0064 14.4506 4.0064C11.9137 4.0064 9.85715 6.04546 9.85715 8.56077V9.69937Z" fill="#1C1C1C"/>
</svg>
