<svg width="44" height="44" viewBox="0 0 44 44" fill="none" xmlns="http://www.w3.org/2000/svg">
<rect width="44" height="44" rx="22" fill="#5751E1"/>
<g clip-path="url(#clip0_187_90)">
<path d="M31.06 31.98L27.22 28.14C27.86 27.34 28.3667 26.46 28.74 25.5C29.1134 24.54 29.3 23.5267 29.3 22.46C29.3 20.9133 28.9 19.4733 28.1 18.14C27.3 16.8067 26.2334 15.74 24.9 14.94C23.5667 14.14 22.1134 13.74 20.54 13.74C18.9667 13.74 17.5134 14.14 16.18 14.94C14.8467 15.74 13.78 16.8067 12.98 18.14C12.18 19.4733 11.78 20.9267 11.78 22.5C11.78 24.0733 12.18 25.5267 12.98 26.86C13.78 28.1933 14.8467 29.26 16.18 30.06C17.5134 30.86 18.98 31.26 20.58 31.26C21.5934 31.26 22.58 31.0733 23.54 30.7C24.5 30.3267 25.38 29.82 26.18 29.18L30.02 33.02C30.18 33.18 30.3534 33.26 30.54 33.26C30.7267 33.26 30.9 33.18 31.06 33.02C31.22 32.86 31.3 32.6867 31.3 32.5C31.3 32.3133 31.22 32.14 31.06 31.98ZM20.58 29.74C19.2467 29.74 18.02 29.42 16.9 28.78C15.78 28.14 14.9 27.26 14.26 26.14C13.62 25.02 13.3 23.8067 13.3 22.5C13.3 21.1933 13.62 19.98 14.26 18.86C14.9 17.74 15.78 16.86 16.9 16.22C18.02 15.58 19.2334 15.26 20.54 15.26C21.8467 15.26 23.06 15.58 24.18 16.22C25.3 16.86 26.18 17.74 26.82 18.86C27.46 19.98 27.78 21.1933 27.78 22.5C27.78 23.8067 27.46 25.02 26.82 26.14C26.18 27.26 25.3 28.14 24.18 28.78C23.06 29.42 21.86 29.74 20.58 29.74Z" fill="white"/>
</g>
<defs>
<clipPath id="clip0_187_90">
<rect width="24" height="24" fill="white" transform="matrix(1 0 0 -1 11.78 35.5)"/>
</clipPath>
</defs>
</svg>
